<svg width="70" height="70" viewBox="0 0 70 70" fill="none" xmlns="http://www.w3.org/2000/svg">
<path d="M35 0C54.3364 0 70 15.6636 70 35C70 54.3364 54.3364 70 35 70C15.6636 70 0 54.3364 0 35C0 15.6636 15.6636 0 35 0Z" fill="url(#paint0_linear_50_776)"/>
<path fill-rule="evenodd" clip-rule="evenodd" d="M16.7266 43.8256C17.0321 43.7678 17.3471 43.738 17.6657 43.738H27.9069V32.5576H16.7266V43.8256Z" fill="white"/>
<path fill-rule="evenodd" clip-rule="evenodd" d="M53.0629 27.4349V24.9678C53.0629 23.6355 52.2504 22.4355 51.0132 21.9417L34.2427 15.2334C33.4656 14.9222 32.5973 14.9222 31.8203 15.2334L15.0497 21.9416C13.8125 22.4355 13 23.6354 13 24.9678V27.4349C13 29.2349 14.4609 30.694 16.261 30.694H49.802C51.6019 30.694 53.0629 29.2349 53.0629 27.4349ZM33.0314 21.7721C34.06 21.7721 34.8947 22.6069 34.8947 23.6354C34.8947 24.664 34.0599 25.4988 33.0314 25.4988C32.0028 25.4988 31.168 24.664 31.168 23.6354C31.168 22.6069 32.0029 21.7721 33.0314 21.7721Z" fill="white"/>
<path fill-rule="evenodd" clip-rule="evenodd" d="M34.8597 45.6006H17.6662C16.2109 45.6006 14.9307 46.5658 14.532 47.9671L13.3935 51.9491C13.1922 52.6516 13.3338 53.4082 13.7736 53.9914C14.2134 54.5746 14.9028 54.9175 15.6333 54.9175H36.1454C34.459 53.7808 33.6448 52.2156 33.6448 50.5385C33.6447 48.7572 34.0845 47.0764 34.8597 45.6006Z" fill="white"/>
<path fill-rule="evenodd" clip-rule="evenodd" d="M40.8311 32.5576H38.1553V34.9856C38.8317 33.9719 39.7522 33.1334 40.8311 32.5576Z" fill="white"/>
<path d="M44.2861 44.5555C47.322 44.5555 49.7831 42.0944 49.7831 39.0585C49.7831 36.0226 47.322 33.5615 44.2861 33.5615C41.2502 33.5615 38.7891 36.0226 38.7891 39.0585C38.7891 42.0944 41.2502 44.5555 44.2861 44.5555Z" fill="white"/>
<path d="M46.3612 50.1137C46.3612 47.4243 48.368 45.1963 50.9626 44.8447C50.6419 44.4689 50.2906 44.12 49.9118 43.8027C48.5609 45.4034 46.541 46.4189 44.2863 46.4189C42.0297 46.4189 40.0098 45.4034 38.6588 43.8027C36.7339 45.4145 35.5078 47.8351 35.5078 50.5389C35.5078 51.8265 36.3054 52.9612 37.7979 53.7346C39.3725 54.5489 41.8266 54.9905 44.2863 54.9905C45.8192 54.9905 47.3492 54.8189 48.6657 54.4925C47.275 53.5323 46.3612 51.928 46.3612 50.1137Z" fill="white"/>
<path d="M51.6796 45.6689C49.2238 45.6689 47.2344 47.6583 47.2344 50.1141C47.2344 52.5699 49.2237 54.5593 51.6796 54.5593C54.1354 54.5593 56.1248 52.57 56.1248 50.1141C56.1248 47.6583 54.1355 45.6689 51.6796 45.6689ZM54.239 50.4649C54.239 50.7161 54.0357 50.9234 53.7845 50.9234H52.4889V52.219C52.4889 52.4702 52.2856 52.6775 52.0304 52.6775H51.3287C51.0775 52.6775 50.8703 52.4742 50.8703 52.219V50.9234H49.5746C49.3234 50.9234 49.1162 50.7201 49.1162 50.4688V49.7672C49.1162 49.516 49.3195 49.3087 49.5707 49.3087H50.8663V48.0131C50.8663 47.7619 51.0696 47.5546 51.3248 47.5546H52.0265C52.2777 47.5546 52.4849 47.7579 52.4849 48.0131V49.3087H53.7806C54.0318 49.3087 54.239 49.512 54.239 49.7632V50.4649Z" fill="white"/>
<defs>
<linearGradient id="paint0_linear_50_776" x1="35" y1="0" x2="35" y2="70" gradientUnits="userSpaceOnUse">
<stop stop-color="#F2BE75"/>
<stop offset="1" stop-color="#E0A039"/>
</linearGradient>
</defs>
</svg>
