<svg width="219" height="79" viewBox="0 0 219 79" fill="none" xmlns="http://www.w3.org/2000/svg">
<path d="M39.5 0C61.3226 0 79 17.6775 79 39.5C79 61.3226 61.3226 79 39.5 79C17.6775 79 0 61.3226 0 39.5C0 17.6775 17.6775 0 39.5 0Z" fill="url(#paint0_linear_37_640)"/>
<path d="M27.7235 23.5044H26.4556C24.0661 23.5044 22.7495 24.9186 22.7495 27.7226V41.328C22.7495 44.8392 21.6034 46.0585 18.9457 46.0585C16.8488 46.0585 15.142 45.1074 13.801 43.3765C13.6791 43.2058 10.9238 44.5709 10.9238 47.9115C10.9238 51.5447 14.1911 53.7634 20.2624 53.7634C27.6504 53.7634 31.5272 49.911 31.5272 41.4501V27.7226C31.5272 24.9186 30.2106 23.5044 27.7235 23.5044ZM58.5188 30.0878C51.0577 30.0878 46.1079 34.818 46.1079 41.8648C46.1079 48.9112 50.8871 53.7389 58.3968 53.7389C65.9069 53.7389 70.7591 49.1063 70.7591 41.9134C70.7591 34.7205 65.9069 30.0878 58.5433 30.0878H58.5188ZM58.4213 47.3995C55.52 47.3995 53.5205 45.278 53.5205 42.2061C53.5205 39.1337 55.5686 37.0612 58.4213 37.0612C61.274 37.0612 63.3224 39.2069 63.3224 42.2547C63.3224 45.3025 61.2254 47.3995 58.4213 47.3995ZM39.671 31.185H38.7689C36.5257 31.185 34.8433 32.2334 34.8433 35.4276V50.0085C34.8433 53.2515 36.5013 54.2512 38.8664 54.2512H39.7686C42.0118 54.2512 43.5965 53.1539 43.5965 50.0085V35.4276C43.5965 32.1603 42.0363 31.185 39.671 31.185ZM39.3053 20.1152C36.4769 20.1152 34.7214 21.7001 34.7214 24.2115C34.7214 26.723 36.55 28.3322 39.4516 28.3322C42.3531 28.3322 44.0354 26.7473 44.0354 24.2115C44.0354 21.6757 42.2069 20.1152 39.3053 20.1152Z" fill="white"/>
<path d="M101.95 17.15C104.25 17.15 105.925 17.65 106.975 18.65C108.042 19.6333 108.575 20.9917 108.575 22.725C108.575 23.5083 108.458 24.2583 108.225 24.975C107.992 25.675 107.6 26.3083 107.05 26.875C106.517 27.425 105.808 27.8583 104.925 28.175C104.042 28.4917 102.95 28.65 101.65 28.65H100.025V35H96.25V17.15H101.95ZM101.75 20.25H100.025V25.55H101.275C101.992 25.55 102.608 25.4583 103.125 25.275C103.642 25.0917 104.042 24.8 104.325 24.4C104.608 24 104.75 23.4833 104.75 22.85C104.75 21.9667 104.508 21.3167 104.025 20.9C103.542 20.4667 102.783 20.25 101.75 20.25ZM117.248 21.075C119.082 21.075 120.482 21.475 121.448 22.275C122.432 23.0583 122.923 24.2667 122.923 25.9V35H120.323L119.598 33.15H119.498C119.115 33.6333 118.715 34.0333 118.298 34.35C117.898 34.6667 117.432 34.8917 116.898 35.025C116.382 35.175 115.74 35.25 114.973 35.25C114.173 35.25 113.448 35.1 112.798 34.8C112.165 34.4833 111.665 34.0083 111.298 33.375C110.932 32.725 110.748 31.9083 110.748 30.925C110.748 29.475 111.257 28.4083 112.273 27.725C113.29 27.025 114.815 26.6417 116.848 26.575L119.223 26.5V25.9C119.223 25.1833 119.032 24.6583 118.648 24.325C118.282 23.9917 117.765 23.825 117.098 23.825C116.432 23.825 115.782 23.925 115.148 24.125C114.515 24.3083 113.882 24.5417 113.248 24.825L112.023 22.3C112.757 21.9167 113.565 21.6167 114.448 21.4C115.348 21.1833 116.282 21.075 117.248 21.075ZM117.773 28.725C116.573 28.7583 115.74 28.975 115.273 29.375C114.807 29.775 114.573 30.3 114.573 30.95C114.573 31.5167 114.74 31.925 115.073 32.175C115.407 32.4083 115.84 32.525 116.373 32.525C117.173 32.525 117.848 32.2917 118.398 31.825C118.948 31.3417 119.223 30.6667 119.223 29.8V28.675L117.773 28.725ZM124.786 21.35H128.861L131.436 29.025C131.519 29.275 131.586 29.525 131.636 29.775C131.703 30.025 131.753 30.2833 131.786 30.55C131.836 30.8167 131.869 31.1 131.886 31.4H131.961C132.011 30.9667 132.078 30.5583 132.161 30.175C132.261 29.775 132.369 29.3917 132.486 29.025L135.011 21.35H139.011L133.236 36.75C132.886 37.6833 132.428 38.4667 131.861 39.1C131.311 39.7333 130.669 40.2083 129.936 40.525C129.203 40.8417 128.403 41 127.536 41C127.119 41 126.753 40.975 126.436 40.925C126.136 40.8917 125.869 40.85 125.636 40.8V37.85C125.819 37.8833 126.036 37.9167 126.286 37.95C126.553 37.9833 126.828 38 127.111 38C127.628 38 128.069 37.8917 128.436 37.675C128.819 37.4583 129.136 37.1583 129.386 36.775C129.636 36.4083 129.836 36.0083 129.986 35.575L130.211 34.9L124.786 21.35ZM156.995 21.1C158.545 21.1 159.711 21.5 160.495 22.3C161.295 23.0833 161.695 24.35 161.695 26.1V35H157.97V27.025C157.97 26.0417 157.803 25.3083 157.47 24.825C157.136 24.325 156.62 24.075 155.92 24.075C154.936 24.075 154.236 24.425 153.82 25.125C153.403 25.825 153.195 26.8333 153.195 28.15V35H149.47V27.025C149.47 26.375 149.395 25.8333 149.245 25.4C149.095 24.9667 148.87 24.6417 148.57 24.425C148.27 24.1917 147.886 24.075 147.42 24.075C146.736 24.075 146.195 24.25 145.795 24.6C145.395 24.95 145.111 25.4583 144.945 26.125C144.778 26.7917 144.695 27.6083 144.695 28.575V35H140.97V21.35H143.82L144.32 23.1H144.52C144.803 22.6333 145.153 22.2583 145.57 21.975C145.986 21.675 146.445 21.4583 146.945 21.325C147.461 21.175 147.978 21.1 148.495 21.1C149.495 21.1 150.345 21.2667 151.045 21.6C151.745 21.9167 152.278 22.4167 152.645 23.1H152.97C153.386 22.4 153.961 21.8917 154.695 21.575C155.445 21.2583 156.211 21.1 156.995 21.1ZM171.155 21.1C172.422 21.1 173.505 21.3417 174.405 21.825C175.322 22.3083 176.03 23.0083 176.53 23.925C177.03 24.8417 177.28 25.9667 177.28 27.3V29.1H168.48C168.513 30.15 168.822 30.975 169.405 31.575C170.005 32.175 170.83 32.475 171.88 32.475C172.763 32.475 173.563 32.3917 174.28 32.225C174.997 32.0417 175.738 31.7667 176.505 31.4V34.275C175.838 34.6083 175.13 34.85 174.38 35C173.647 35.1667 172.755 35.25 171.705 35.25C170.338 35.25 169.13 35 168.08 34.5C167.03 33.9833 166.205 33.2083 165.605 32.175C165.005 31.1417 164.705 29.8417 164.705 28.275C164.705 26.675 164.972 25.35 165.505 24.3C166.055 23.2333 166.813 22.4333 167.78 21.9C168.747 21.3667 169.872 21.1 171.155 21.1ZM171.18 23.75C170.463 23.75 169.863 23.9833 169.38 24.45C168.913 24.9167 168.638 25.6417 168.555 26.625H173.78C173.78 26.075 173.68 25.5833 173.48 25.15C173.297 24.7167 173.013 24.375 172.63 24.125C172.247 23.875 171.763 23.75 171.18 23.75ZM188.051 21.1C189.517 21.1 190.692 21.5 191.576 22.3C192.459 23.0833 192.901 24.35 192.901 26.1V35H189.176V27.025C189.176 26.0417 189.001 25.3083 188.651 24.825C188.301 24.325 187.742 24.075 186.976 24.075C185.842 24.075 185.067 24.4667 184.651 25.25C184.234 26.0167 184.026 27.125 184.026 28.575V35H180.301V21.35H183.151L183.651 23.1H183.851C184.151 22.6333 184.517 22.2583 184.951 21.975C185.384 21.675 185.867 21.4583 186.401 21.325C186.934 21.175 187.484 21.1 188.051 21.1ZM202.481 32.275C202.898 32.275 203.298 32.2333 203.681 32.15C204.065 32.0667 204.448 31.9667 204.831 31.85V34.625C204.431 34.7917 203.931 34.9333 203.331 35.05C202.748 35.1833 202.106 35.25 201.406 35.25C200.59 35.25 199.856 35.1167 199.206 34.85C198.573 34.5833 198.065 34.125 197.681 33.475C197.315 32.8083 197.131 31.8917 197.131 30.725V24.15H195.356V22.575L197.406 21.325L198.481 18.45H200.856V21.35H204.681V24.15H200.856V30.725C200.856 31.2417 201.006 31.6333 201.306 31.9C201.606 32.15 201.998 32.275 202.481 32.275ZM217.096 30.95C217.096 31.8667 216.879 32.65 216.446 33.3C216.013 33.9333 215.363 34.4167 214.496 34.75C213.629 35.0833 212.554 35.25 211.271 35.25C210.321 35.25 209.504 35.1833 208.821 35.05C208.138 34.9333 207.454 34.7333 206.771 34.45V31.375C207.504 31.7083 208.296 31.9833 209.146 32.2C209.996 32.4167 210.746 32.525 211.396 32.525C212.129 32.525 212.646 32.4167 212.946 32.2C213.263 31.9833 213.421 31.7 213.421 31.35C213.421 31.1167 213.354 30.9083 213.221 30.725C213.104 30.5417 212.838 30.3333 212.421 30.1C212.004 29.8667 211.354 29.5667 210.471 29.2C209.621 28.8333 208.921 28.475 208.371 28.125C207.821 27.7583 207.413 27.325 207.146 26.825C206.879 26.3083 206.746 25.6667 206.746 24.9C206.746 23.6333 207.238 22.6833 208.221 22.05C209.204 21.4167 210.513 21.1 212.146 21.1C212.996 21.1 213.804 21.1833 214.571 21.35C215.338 21.5167 216.129 21.7917 216.946 22.175L215.821 24.85C215.371 24.65 214.938 24.475 214.521 24.325C214.104 24.175 213.696 24.0583 213.296 23.975C212.913 23.8917 212.513 23.85 212.096 23.85C211.546 23.85 211.129 23.925 210.846 24.075C210.579 24.225 210.446 24.45 210.446 24.75C210.446 24.9667 210.513 25.1667 210.646 25.35C210.796 25.5167 211.071 25.7 211.471 25.9C211.888 26.1 212.496 26.3667 213.296 26.7C214.079 27.0167 214.754 27.35 215.321 27.7C215.888 28.0333 216.321 28.4583 216.621 28.975C216.938 29.475 217.096 30.1333 217.096 30.95ZM101.8 46.15C103.383 46.15 104.708 46.3 105.775 46.6C106.858 46.8833 107.667 47.3583 108.2 48.025C108.75 48.675 109.025 49.5583 109.025 50.675C109.025 51.3417 108.917 51.95 108.7 52.5C108.483 53.05 108.167 53.5 107.75 53.85C107.35 54.2 106.858 54.425 106.275 54.525V54.65C106.875 54.7667 107.417 54.975 107.9 55.275C108.383 55.575 108.767 56.0083 109.05 56.575C109.333 57.1417 109.475 57.8917 109.475 58.825C109.475 59.9083 109.208 60.8417 108.675 61.625C108.158 62.3917 107.408 62.9833 106.425 63.4C105.442 63.8 104.275 64 102.925 64H96.25V46.15H101.8ZM102.225 53.225C103.325 53.225 104.083 53.05 104.5 52.7C104.933 52.35 105.15 51.8417 105.15 51.175C105.15 50.4917 104.9 50 104.4 49.7C103.9 49.4 103.108 49.25 102.025 49.25H100.025V53.225H102.225ZM100.025 56.225V60.875H102.5C103.633 60.875 104.425 60.6583 104.875 60.225C105.325 59.775 105.55 59.1833 105.55 58.45C105.55 58 105.45 57.6083 105.25 57.275C105.067 56.9417 104.742 56.6833 104.275 56.5C103.808 56.3167 103.175 56.225 102.375 56.225H100.025ZM118.347 50.075C120.18 50.075 121.58 50.475 122.547 51.275C123.53 52.0583 124.022 53.2667 124.022 54.9V64H121.422L120.697 62.15H120.597C120.214 62.6333 119.814 63.0333 119.397 63.35C118.997 63.6667 118.53 63.8917 117.997 64.025C117.48 64.175 116.839 64.25 116.072 64.25C115.272 64.25 114.547 64.1 113.897 63.8C113.264 63.4833 112.764 63.0083 112.397 62.375C112.03 61.725 111.847 60.9083 111.847 59.925C111.847 58.475 112.355 57.4083 113.372 56.725C114.389 56.025 115.914 55.6417 117.947 55.575L120.322 55.5V54.9C120.322 54.1833 120.13 53.6583 119.747 53.325C119.38 52.9917 118.864 52.825 118.197 52.825C117.53 52.825 116.88 52.925 116.247 53.125C115.614 53.3083 114.98 53.5417 114.347 53.825L113.122 51.3C113.855 50.9167 114.664 50.6167 115.547 50.4C116.447 50.1833 117.38 50.075 118.347 50.075ZM118.872 57.725C117.672 57.7583 116.839 57.975 116.372 58.375C115.905 58.775 115.672 59.3 115.672 59.95C115.672 60.5167 115.839 60.925 116.172 61.175C116.505 61.4083 116.939 61.525 117.472 61.525C118.272 61.525 118.947 61.2917 119.497 60.825C120.047 60.3417 120.322 59.6667 120.322 58.8V57.675L118.872 57.725ZM135.585 50.1C137.051 50.1 138.226 50.5 139.11 51.3C139.993 52.0833 140.435 53.35 140.435 55.1V64H136.71V56.025C136.71 55.0417 136.535 54.3083 136.185 53.825C135.835 53.325 135.276 53.075 134.51 53.075C133.376 53.075 132.601 53.4667 132.185 54.25C131.768 55.0167 131.56 56.125 131.56 57.575V64H127.835V50.35H130.685L131.185 52.1H131.385C131.685 51.6333 132.051 51.2583 132.485 50.975C132.918 50.675 133.401 50.4583 133.935 50.325C134.468 50.175 135.018 50.1 135.585 50.1ZM147.99 53.5C147.99 54.0167 147.965 54.5333 147.915 55.05C147.882 55.55 147.84 56.0583 147.79 56.575H147.84C148.007 56.3417 148.174 56.1083 148.34 55.875C148.524 55.6417 148.707 55.4083 148.89 55.175C149.074 54.9417 149.265 54.7167 149.465 54.5L153.29 50.35H157.49L152.065 56.275L157.815 64H153.515L149.59 58.475L147.99 59.75V64H144.265V45H147.99V53.5ZM167.026 64V46.15H170.801V60.875H178.051V64H167.026ZM186.612 61.275C187.029 61.275 187.429 61.2333 187.812 61.15C188.195 61.0667 188.579 60.9667 188.962 60.85V63.625C188.562 63.7917 188.062 63.9333 187.462 64.05C186.879 64.1833 186.237 64.25 185.537 64.25C184.72 64.25 183.987 64.1167 183.337 63.85C182.704 63.5833 182.195 63.125 181.812 62.475C181.445 61.8083 181.262 60.8917 181.262 59.725V53.15H179.487V51.575L181.537 50.325L182.612 47.45H184.987V50.35H188.812V53.15H184.987V59.725C184.987 60.2417 185.137 60.6333 185.437 60.9C185.737 61.15 186.129 61.275 186.612 61.275ZM196.027 64.25C194.51 64.25 193.269 63.6583 192.302 62.475C191.352 61.275 190.877 59.5167 190.877 57.2C190.877 54.8667 191.36 53.1 192.327 51.9C193.294 50.7 194.56 50.1 196.127 50.1C196.777 50.1 197.352 50.1917 197.852 50.375C198.352 50.5417 198.777 50.775 199.127 51.075C199.494 51.375 199.802 51.7167 200.052 52.1H200.177C200.127 51.8333 200.069 51.45 200.002 50.95C199.935 50.4333 199.902 49.9083 199.902 49.375V45H203.627V64H200.777L200.052 62.225H199.902C199.669 62.5917 199.369 62.9333 199.002 63.25C198.652 63.55 198.235 63.7917 197.752 63.975C197.269 64.1583 196.694 64.25 196.027 64.25ZM197.327 61.275C198.36 61.275 199.085 60.975 199.502 60.375C199.919 59.7583 200.135 58.8417 200.152 57.625V57.225C200.152 55.8917 199.944 54.875 199.527 54.175C199.127 53.475 198.377 53.125 197.277 53.125C196.46 53.125 195.819 53.4833 195.352 54.2C194.885 54.9 194.652 55.9167 194.652 57.25C194.652 58.5833 194.885 59.5917 195.352 60.275C195.819 60.9417 196.477 61.275 197.327 61.275ZM206.997 62.25C206.997 61.4833 207.206 60.95 207.622 60.65C208.039 60.3333 208.547 60.175 209.147 60.175C209.731 60.175 210.231 60.3333 210.647 60.65C211.064 60.95 211.272 61.4833 211.272 62.25C211.272 62.9833 211.064 63.5167 210.647 63.85C210.231 64.1667 209.731 64.325 209.147 64.325C208.547 64.325 208.039 64.1667 207.622 63.85C207.206 63.5167 206.997 62.9833 206.997 62.25Z" fill="#312411"/>
<defs>
<linearGradient id="paint0_linear_37_640" x1="39.5" y1="0" x2="39.5" y2="79" gradientUnits="userSpaceOnUse">
<stop stop-color="#F2BE75"/>
<stop offset="1" stop-color="#E0A039"/>
</linearGradient>
</defs>
</svg>
