<svg width="30" height="32" viewBox="0 0 30 32" fill="none" xmlns="http://www.w3.org/2000/svg">
<path d="M23.1091 0.950064C22.5158 0.316455 21.8123 0 20.9999 0H9.00017C8.18747 0 7.48445 0.316717 6.89069 0.950064C6.29692 1.58306 6 2.33322 6 3.19983V28.8C6 29.6665 6.29692 30.4166 6.89069 31.0498C7.48445 31.6832 8.18747 32 9.00017 32H20.9999C21.8122 32 22.5158 31.6829 23.109 31.0498C23.7029 30.4166 23.9999 29.6665 23.9999 28.8V3.19983C23.9999 2.33322 23.7033 1.58341 23.1091 0.950064ZM13.1251 3.19983H16.8754C17.1254 3.19983 17.2501 3.33319 17.2501 3.59991C17.2501 3.86654 17.1254 4.00008 16.8754 4.00008H13.1251C12.8751 4.00008 12.7501 3.86654 12.7501 3.59991C12.75 3.33319 12.875 3.19983 13.1251 3.19983ZM16.3246 30.2126C15.9572 30.6039 15.5159 30.7999 15.0001 30.7999C14.4846 30.7999 14.0433 30.6039 13.676 30.2126C13.3087 29.8205 13.1251 29.3495 13.1251 28.8C13.1251 28.2498 13.309 27.779 13.676 27.3873C14.043 26.996 14.4847 26.7994 15.0001 26.7994C15.516 26.7994 15.9573 26.996 16.3246 27.3873C16.6918 27.779 16.8753 28.2498 16.8753 28.8C16.8753 29.3502 16.6916 29.8206 16.3246 30.2126ZM21.7503 24.8002C21.7503 25.0165 21.6761 25.2047 21.5275 25.3627C21.3786 25.5209 21.2033 25.5997 21.0005 25.5997H9.00017C8.79708 25.5997 8.62132 25.5206 8.4729 25.3627C8.32448 25.2047 8.25027 25.0165 8.25027 24.8002V7.20026C8.25027 6.98363 8.3244 6.79598 8.4729 6.63784C8.62141 6.47979 8.79708 6.40019 9.00017 6.40019H20.9999C21.2033 6.40019 21.3788 6.47944 21.5275 6.63784C21.6761 6.79607 21.7499 6.98363 21.7499 7.20026V24.8001H21.7503V24.8002Z" fill="#312109"/>
</svg>
