<svg width="50" height="50" viewBox="0 0 50 50" fill="none" xmlns="http://www.w3.org/2000/svg">
<path d="M47.4971 9H26V3.49C26.0004 3.03155 25.9104 2.57752 25.7352 2.15389C25.5599 1.73026 25.3028 1.34535 24.9787 1.02119C24.6545 0.697025 24.2695 0.439974 23.8459 0.264747C23.4223 0.0895191 22.9682 -0.000445563 22.5098 1.65922e-06H3.48975C3.03133 -0.000394423 2.57734 0.0896086 2.15375 0.26486C1.73016 0.440112 1.34529 0.697173 1.02115 1.02133C0.697015 1.34549 0.439983 1.73038 0.264762 2.15399C0.0895416 2.57759 -0.000428119 3.03159 1.53161e-06 3.49V46.51C0.000822284 47.4353 0.368746 48.3225 1.02302 48.9768C1.67728 49.6311 2.56444 49.9991 3.48975 50H22.5097C23.4351 49.9992 24.3224 49.6313 24.9768 48.977C25.6312 48.3226 25.9992 47.4354 26 46.51V29H47.4975C48.1612 29 48.7977 28.7363 49.267 28.267C49.7363 27.7977 50 27.1612 50 26.4975V11.5029C50 11.1742 49.9353 10.8487 49.8095 10.5451C49.6837 10.2414 49.4993 9.96549 49.2669 9.73307C49.0345 9.50066 48.7586 9.3163 48.4549 9.19052C48.1513 9.06474 47.8258 9 47.4971 9ZM10.5 2.12H15.5C15.8315 2.12 16.1495 2.2517 16.3839 2.48612C16.6183 2.72054 16.75 3.03848 16.75 3.37C16.75 3.70152 16.6183 4.01946 16.3839 4.25389C16.1495 4.48831 15.8315 4.62 15.5 4.62H10.5C10.1685 4.62 9.85054 4.48831 9.61612 4.25389C9.3817 4.01946 9.25 3.70152 9.25 3.37C9.25 3.03848 9.3817 2.72054 9.61612 2.48612C9.85054 2.2517 10.1685 2.12 10.5 2.12ZM15.4995 47.8717H10.4995C10.168 47.8717 9.85005 47.74 9.61563 47.5056C9.38121 47.2711 9.24951 46.9532 9.24951 46.6217C9.24951 46.2902 9.38121 45.9722 9.61563 45.7378C9.85005 45.5034 10.168 45.3717 10.4995 45.3717H15.4995C15.831 45.3717 16.149 45.5034 16.3834 45.7378C16.6178 45.9722 16.7495 46.2902 16.7495 46.6217C16.7495 46.9532 16.6178 47.2711 16.3834 47.5056C16.149 47.74 15.831 47.8717 15.4995 47.8717ZM23.7998 43.25H2.19971V6.75H23.7998V9H10.4794C9.82185 9 9.19119 9.26123 8.72621 9.72621C8.26123 10.1912 8 10.8218 8 11.4794V26.5182C8 26.8441 8.06419 27.1669 8.18891 27.468C8.31363 27.7691 8.49643 28.0427 8.72689 28.2731C8.95734 28.5036 9.23093 28.6864 9.53203 28.8111C9.83314 28.9358 10.1559 29 10.4818 29H15V33.0165C15 33.261 15.0725 33.4999 15.2083 33.7031C15.3441 33.9063 15.5371 34.0647 15.7629 34.1583C15.9887 34.2518 16.2372 34.2763 16.4769 34.2286C16.7166 34.1809 16.9368 34.0632 17.1096 33.8904L22 29H23.7998V43.25ZM21.0898 19.91C21.3767 20.0766 21.586 20.3499 21.6722 20.6702C21.7584 20.9905 21.7144 21.332 21.5498 21.62C21.4685 21.7633 21.3595 21.889 21.2293 21.9898C21.099 22.0906 20.95 22.1646 20.7909 22.2074C20.6319 22.2501 20.4659 22.2609 20.3026 22.2391C20.1393 22.2172 19.982 22.1631 19.8398 22.08L18.25 21.16V23C18.25 23.3315 18.1183 23.6495 17.8839 23.8839C17.6495 24.1183 17.3315 24.25 17 24.25C16.6685 24.25 16.3505 24.1183 16.1161 23.8839C15.8817 23.6495 15.75 23.3315 15.75 23V21.16L14.1597 22.08C14.0175 22.1631 13.8601 22.2172 13.6969 22.2391C13.5336 22.2609 13.3676 22.2501 13.2085 22.2074C13.0495 22.1646 12.9005 22.0906 12.7702 21.9898C12.6399 21.889 12.531 21.7633 12.4497 21.62C12.2853 21.3319 12.2414 20.9906 12.3276 20.6703C12.4138 20.35 12.623 20.0767 12.9097 19.91L14.5 19L12.9097 18.08C12.6219 17.9142 12.4118 17.641 12.3255 17.3203C12.2393 16.9996 12.2839 16.6578 12.4497 16.37C12.6155 16.0823 12.8887 15.8722 13.2094 15.7859C13.5301 15.6997 13.8719 15.7443 14.1597 15.9101L15.75 16.83V15C15.75 14.6685 15.8817 14.3505 16.1161 14.1161C16.3505 13.8817 16.6685 13.75 17 13.75C17.3315 13.75 17.6495 13.8817 17.8839 14.1161C18.1183 14.3505 18.25 14.6685 18.25 15V16.83L19.8398 15.9101C20.1276 15.7443 20.4694 15.6997 20.7901 15.7859C21.1108 15.8722 21.384 16.0823 21.5498 16.37C21.7156 16.6578 21.7602 16.9996 21.674 17.3203C21.5877 17.641 21.3776 17.9142 21.0898 18.08L19.5 19L21.0898 19.91ZM33.0898 19.91C33.3767 20.0766 33.586 20.3499 33.6722 20.6702C33.7584 20.9905 33.7144 21.332 33.5498 21.62C33.4685 21.7633 33.3595 21.889 33.2293 21.9898C33.099 22.0906 32.95 22.1646 32.7909 22.2074C32.6319 22.2501 32.4659 22.2609 32.3026 22.2391C32.1393 22.2172 31.982 22.1631 31.8398 22.08L30.25 21.16V23C30.25 23.3315 30.1183 23.6495 29.8839 23.8839C29.6495 24.1183 29.3315 24.25 29 24.25C28.6685 24.25 28.3505 24.1183 28.1161 23.8839C27.8817 23.6495 27.75 23.3315 27.75 23V21.16L26.1597 22.08C26.0175 22.1631 25.8601 22.2172 25.6969 22.2391C25.5336 22.2609 25.3676 22.2501 25.2085 22.2074C25.0495 22.1646 24.9005 22.0906 24.7702 21.9898C24.6399 21.889 24.531 21.7633 24.4497 21.62C24.2853 21.3319 24.2414 20.9906 24.3276 20.6703C24.4138 20.35 24.623 20.0767 24.9097 19.91L26.5 19L24.9097 18.08C24.6219 17.9142 24.4118 17.641 24.3255 17.3203C24.2393 16.9996 24.2839 16.6578 24.4497 16.37C24.6155 16.0823 24.8887 15.8722 25.2094 15.7859C25.5301 15.6997 25.8719 15.7443 26.1597 15.9101L27.75 16.83V15C27.75 14.6685 27.8817 14.3505 28.1161 14.1161C28.3505 13.8817 28.6685 13.75 29 13.75C29.3315 13.75 29.6495 13.8817 29.8839 14.1161C30.1183 14.3505 30.25 14.6685 30.25 15V16.83L31.8398 15.9101C32.1276 15.7443 32.4694 15.6997 32.7901 15.7859C33.1108 15.8722 33.384 16.0823 33.5498 16.37C33.7156 16.6578 33.7602 16.9996 33.674 17.3203C33.5877 17.641 33.3776 17.9142 33.0898 18.08L31.5 19L33.0898 19.91ZM45.0898 19.91C45.3767 20.0766 45.586 20.3499 45.6722 20.6702C45.7584 20.9905 45.7144 21.332 45.5498 21.62C45.4685 21.7633 45.3595 21.889 45.2293 21.9898C45.099 22.0906 44.95 22.1646 44.7909 22.2074C44.6319 22.2501 44.4659 22.2609 44.3026 22.2391C44.1393 22.2172 43.982 22.1631 43.8398 22.08L42.25 21.16V23C42.25 23.3315 42.1183 23.6495 41.8839 23.8839C41.6495 24.1183 41.3315 24.25 41 24.25C40.6685 24.25 40.3505 24.1183 40.1161 23.8839C39.8817 23.6495 39.75 23.3315 39.75 23V21.16L38.1597 22.08C38.0175 22.1631 37.8601 22.2172 37.6969 22.2391C37.5336 22.2609 37.3676 22.2501 37.2085 22.2074C37.0495 22.1646 36.9005 22.0906 36.7702 21.9898C36.6399 21.889 36.531 21.7633 36.4497 21.62C36.2853 21.3319 36.2414 20.9906 36.3276 20.6703C36.4138 20.35 36.623 20.0767 36.9097 19.91L38.5 19L36.9097 18.08C36.6219 17.9142 36.4118 17.641 36.3255 17.3203C36.2393 16.9996 36.2839 16.6578 36.4497 16.37C36.6155 16.0823 36.8887 15.8722 37.2094 15.7859C37.5301 15.6997 37.8719 15.7443 38.1597 15.9101L39.75 16.83V15C39.75 14.6685 39.8817 14.3505 40.1161 14.1161C40.3505 13.8817 40.6685 13.75 41 13.75C41.3315 13.75 41.6495 13.8817 41.8839 14.1161C42.1183 14.3505 42.25 14.6685 42.25 15V16.83L43.8398 15.9101C43.9823 15.828 44.1396 15.7748 44.3026 15.7535C44.4657 15.7322 44.6313 15.7432 44.7901 15.7859C44.9489 15.8286 45.0977 15.9022 45.228 16.0024C45.3584 16.1026 45.4677 16.2276 45.5498 16.37C45.6319 16.5125 45.6851 16.6698 45.7064 16.8328C45.7277 16.9959 45.7167 17.1615 45.674 17.3203C45.6313 17.4791 45.5577 17.6279 45.4575 17.7582C45.3572 17.8886 45.2323 17.9979 45.0898 18.08L43.5 19L45.0898 19.91Z" fill="#312109"/>
</svg>
