<svg width="30" height="30" viewBox="0 0 30 30" fill="none" xmlns="http://www.w3.org/2000/svg">
<path d="M4.65517 9.31034V7.24138C4.65517 3.24843 7.9036 0 11.8966 0C15.8895 0 19.1379 3.24843 19.1379 7.24138V9.31034H15.5172V7.24138C15.5172 5.24172 13.8962 3.62069 11.8966 3.62069C9.8969 3.62069 8.27586 5.24172 8.27586 7.24138V9.31034H4.65517ZM6.72414 26.8966C5.01279 26.8966 3.62069 25.5044 3.62069 23.7931V18.6207C3.62069 16.9093 5.01279 15.5172 6.72414 15.5172H23.7931V12.931C23.7931 11.5051 22.6328 10.3448 21.2069 10.3448H2.58621C1.16028 10.3448 0 11.5051 0 12.931V27.4138C0 28.8397 1.16028 30 2.58621 30H21.2069C22.6328 30 23.7931 28.8397 23.7931 27.4138V26.8966H6.72414ZM30 18.6207V23.7931C30 24.9339 29.0721 25.8621 27.931 25.8621H6.72414C5.58305 25.8621 4.65517 24.9339 4.65517 23.7931V18.6207C4.65517 17.4799 5.58305 16.5517 6.72414 16.5517H27.931C29.0721 16.5517 30 17.4799 30 18.6207ZM10.6035 21.2069L11.1712 20.8791C11.4187 20.7361 11.5036 20.4197 11.3606 20.1724C11.2172 19.9247 10.9005 19.84 10.654 19.983L10.0862 20.3109V19.6552C10.0862 19.3696 9.85484 19.138 9.56896 19.138C9.28309 19.138 9.05172 19.3696 9.05172 19.6552V20.3109L8.48395 19.983C8.23645 19.84 7.92021 19.9247 7.77729 20.1724C7.63433 20.4197 7.71921 20.7361 7.96671 20.8791L8.53443 21.2069L7.96671 21.5347C7.71921 21.6777 7.63433 21.9941 7.77729 22.2414C7.87324 22.4073 8.04703 22.5 8.22584 22.5C8.31372 22.5 8.40264 22.4778 8.48395 22.4308L9.05172 22.1029V22.7586C9.05172 23.0442 9.28309 23.2758 9.56896 23.2758C9.85484 23.2758 10.0862 23.0442 10.0862 22.7586V22.1029L10.654 22.4308C10.7353 22.4778 10.8242 22.5 10.9121 22.5C11.0909 22.5 11.2646 22.4073 11.3606 22.2414C11.5036 21.9941 11.4187 21.6777 11.1712 21.5347L10.6035 21.2069ZM15.7759 21.2069L16.3436 20.8791C16.5911 20.7361 16.676 20.4197 16.5331 20.1724C16.3896 19.9247 16.0729 19.84 15.8264 19.983L15.2586 20.3109V19.6552C15.2586 19.3696 15.0273 19.138 14.7414 19.138C14.4555 19.138 14.2241 19.3696 14.2241 19.6552V20.3109L13.6564 19.983C13.4089 19.84 13.0926 19.9247 12.9497 20.1724C12.8067 20.4197 12.8916 20.7361 13.1391 20.8791L13.7068 21.2069L13.1391 21.5347C12.8916 21.6777 12.8067 21.9941 12.9497 22.2414C13.0457 22.4073 13.2194 22.5 13.3983 22.5C13.4861 22.5 13.5751 22.4778 13.6564 22.4308L14.2241 22.1029V22.7586C14.2241 23.0442 14.4555 23.2758 14.7414 23.2758C15.0273 23.2758 15.2586 23.0442 15.2586 22.7586V22.1029L15.8264 22.4308C15.9077 22.4778 15.9966 22.5 16.0845 22.5C16.2633 22.5 16.4371 22.4073 16.5331 22.2414C16.676 21.9941 16.5911 21.6777 16.3436 21.5347L15.7759 21.2069ZM20.9483 21.2069L21.5161 20.8791C21.7635 20.7361 21.8484 20.4197 21.7055 20.1724C21.5625 19.9247 21.2453 19.84 20.9988 19.983L20.431 20.3109V19.6552C20.431 19.3696 20.1997 19.138 19.9138 19.138C19.6279 19.138 19.3966 19.3696 19.3966 19.6552V20.3109L18.8288 19.983C18.5813 19.84 18.265 19.9247 18.1221 20.1724C17.9792 20.4197 18.064 20.7361 18.3115 20.8791L18.8793 21.2069L18.3115 21.5347C18.064 21.6777 17.9792 21.9941 18.1221 22.2414C18.2181 22.4073 18.3919 22.5 18.5707 22.5C18.6586 22.5 18.7475 22.4778 18.8288 22.4308L19.3966 22.1029V22.7586C19.3966 23.0442 19.6279 23.2758 19.9138 23.2758C20.1997 23.2758 20.431 23.0442 20.431 22.7586V22.1029L20.9988 22.4308C21.0801 22.4778 21.169 22.5 21.2569 22.5C21.4357 22.5 21.6095 22.4073 21.7055 22.2414C21.8484 21.9941 21.7635 21.6777 21.5161 21.5347L20.9483 21.2069ZM26.1207 21.2069L26.6885 20.8791C26.936 20.7361 27.0208 20.4197 26.8779 20.1724C26.7344 19.9247 26.4177 19.84 26.1712 19.983L25.6034 20.3109V19.6552C25.6034 19.3696 25.3721 19.138 25.0862 19.138C24.8003 19.138 24.569 19.3696 24.569 19.6552V20.3109L24.0012 19.983C23.7537 19.84 23.4374 19.9247 23.2945 20.1724C23.1516 20.4197 23.2364 20.7361 23.4839 20.8791L24.0517 21.2069L23.4839 21.5347C23.2364 21.6777 23.1516 21.9941 23.2945 22.2414C23.3905 22.4073 23.5643 22.5 23.7431 22.5C23.831 22.5 23.9199 22.4778 24.0012 22.4308L24.569 22.1029V22.7586C24.569 23.0442 24.8003 23.2758 25.0862 23.2758C25.3721 23.2758 25.6034 23.0442 25.6034 22.7586V22.1029L26.1712 22.4308C26.2525 22.4778 26.3414 22.5 26.4293 22.5C26.6081 22.5 26.7819 22.4073 26.8779 22.2414C27.0208 21.9941 26.936 21.6777 26.6885 21.5347L26.1207 21.2069Z" fill="#312109"/>
</svg>
