<svg width="197" height="79" viewBox="0 0 197 79" fill="none" xmlns="http://www.w3.org/2000/svg">
<g clip-path="url(#clip0_37_646)">
<mask id="mask0_37_646" style="mask-type:luminance" maskUnits="userSpaceOnUse" x="149" y="34" width="39" height="34">
<path d="M156.931 55.0076C156.237 55.5685 155.784 55.9418 155.644 56.0682C154.815 56.6903 153.999 56.8898 153.29 56.9629C151.105 57.188 149.714 55.6357 149.714 55.6357C149.714 55.6357 149.667 55.7601 149.598 55.9635C149.234 56.9313 151.44 59.2065 151.44 59.2065L158.388 67.2546C158.388 67.2546 159.226 68.1611 160.565 67.7484C161.077 67.616 164.515 64.9656 164.515 64.9656L183.784 49.847L185.226 48.2452L187.166 42.9048L186.953 35.9943L183.392 34.0391C183.392 34.0391 162.47 50.5362 156.931 55.0116" fill="white"/>
</mask>
<g mask="url(#mask0_37_646)">
<path d="M187.182 34.0195H149.218V68.1772H187.182V34.0195Z" fill="url(#paint0_linear_37_646)"/>
</g>
<mask id="mask1_37_646" style="mask-type:luminance" maskUnits="userSpaceOnUse" x="167" y="7" width="25" height="43">
<path d="M167.243 14.0011C167.243 14.0011 184.839 44.3627 184.914 44.5148C186.216 47.5129 183.783 49.8453 183.783 49.8453C183.783 49.8453 184.78 49.1541 186.005 48.0402C186.468 47.5701 186.514 47.1909 186.723 46.8591C187.339 45.3068 188.22 42.4253 188.22 42.4253L190.879 33.6563C190.879 33.6563 191.575 31.8551 190.284 29.8129C189.774 29.0249 177.81 8.28145 177.81 8.28145L176.804 7.20508L167.245 14.003L167.243 14.0011Z" fill="white"/>
</mask>
<g mask="url(#mask1_37_646)">
<path d="M191.575 7.20508H167.243V49.8473H191.575V7.20508Z" fill="url(#paint1_linear_37_646)"/>
</g>
<mask id="mask2_37_646" style="mask-type:luminance" maskUnits="userSpaceOnUse" x="149" y="5" width="30" height="59">
<path d="M174.836 5.76726L165.819 8.77321C165.819 8.77321 164.931 8.96676 164.287 9.60468C163.873 10.0175 163.597 11.163 163.422 11.6745C161.483 17.3526 151.71 49.1343 149.582 56.0587C149.309 56.9494 159.657 63.139 159.657 63.139L174.144 16.693C174.144 16.693 175.91 10.9339 176.434 9.86143C177.044 8.58361 178.063 8.72383 178.063 8.72383C178.063 8.72383 177.868 8.32686 177.594 7.86273C176.934 6.70143 176.597 6.12078 176.073 5.88181C175.776 5.74553 175.498 5.70801 175.281 5.70801C175.011 5.70801 174.836 5.76528 174.836 5.76528" fill="white"/>
</mask>
<g mask="url(#mask2_37_646)">
<path d="M178.063 5.70801H149.309V63.139H178.063V5.70801Z" fill="url(#paint2_linear_37_646)"/>
</g>
<mask id="mask3_37_646" style="mask-type:luminance" maskUnits="userSpaceOnUse" x="149" y="44" width="26" height="24">
<path d="M169.572 44.9531C164.438 49.0177 159.291 53.1039 156.933 55.0078C156.239 55.5687 155.786 55.942 155.646 56.0684C154.817 56.6906 154.001 56.89 153.292 56.9631C151.107 57.1883 149.716 55.6359 149.716 55.6359C149.716 55.6359 149.669 55.7603 149.6 55.9637C149.236 56.9315 151.442 59.2067 151.442 59.2067L158.39 67.2548C158.39 67.2548 159.228 68.1614 160.567 67.7486C161.079 67.6163 164.517 64.9658 164.517 64.9658L174.755 56.9335V44.9551H169.574L169.572 44.9531Z" fill="white"/>
</mask>
<g mask="url(#mask3_37_646)">
<path d="M149.222 44.9184L149.193 68.1582L174.742 68.1895L174.771 44.9497L149.222 44.9184Z" fill="url(#paint3_linear_37_646)"/>
</g>
<path d="M25.9961 9.46973H21.3193L11.0536 26.3915L10.1513 27.934L10.2479 26.5772L11.1088 9.61785L11.1166 9.46973H6.30591L5.93752 33.2487L5.93555 33.3929H10.7167L25.8522 9.6929L25.9961 9.46973Z" fill="#4E4E4E"/>
<path d="M56.454 14.0699H51.6334L45.2033 21.093H43.3101L47.5279 8.2002L43.3062 8.45695L35.1504 33.3933H39.2874L42.0316 25.0035H44.0134L45.5421 33.3933H50.1598L48.176 22.9949L56.454 14.0699Z" fill="#4E4E4E"/>
<mask id="mask4_37_646" style="mask-type:luminance" maskUnits="userSpaceOnUse" x="0" y="0" width="197" height="79">
<path d="M197 0H0V79H197V0Z" fill="white"/>
</mask>
<g mask="url(#mask4_37_646)">
<path d="M35.9506 15.427C35.2217 14.2697 33.7895 13.7285 31.4412 13.7285C29.4318 13.7285 27.4815 14.1057 25.6317 14.8424L24.2704 19.0077L24.7689 18.8003C26.5478 18.0538 27.9248 17.7634 29.682 17.7634C30.9349 17.7634 31.6638 17.9906 31.9712 18.4784C32.2371 18.903 32.2056 19.6002 31.8727 20.6134L31.5082 21.7292C30.5941 21.3994 29.489 21.2197 28.3779 21.2197C24.4773 21.2197 21.4159 23.4554 20.1945 27.2039C19.4833 29.3705 19.4833 31.0453 20.1945 32.177C20.8348 33.1921 21.9971 33.7076 23.6538 33.7076C25.4682 33.7076 27.3417 32.9966 28.8448 31.7484L28.5611 33.3956H31.7998L35.7181 21.4152C36.6519 18.5633 36.7248 16.6614 35.9486 15.429M29.6269 27.4804C29.2151 28.7405 27.3358 29.888 25.6829 29.888C24.8476 29.888 24.296 29.6826 24.0399 29.2777C23.7838 28.8728 23.8016 28.225 24.0872 27.3501C24.6841 25.5212 25.9981 24.6325 28.106 24.6325C29.1738 24.6325 29.9874 24.8201 30.4346 25.0137L29.6269 27.4804Z" fill="#4E4E4E"/>
<path d="M97.9181 15.429C97.207 14.2993 95.9422 13.7285 94.1594 13.7285C92.3765 13.7285 90.6252 14.3467 89.0098 15.4764L89.0354 13.9201L85.9405 14.1768L79.6562 33.3936H83.7913L88.3282 19.5251C89.2718 18.5811 90.7454 17.9471 92.0022 17.9471C92.9833 17.9471 93.6295 18.1821 93.921 18.6463C94.2126 19.1104 94.1889 19.8648 93.856 20.8899L89.7643 33.3916H93.9013L97.9319 21.0696C98.7337 18.6166 98.7278 16.7167 97.9162 15.427" fill="#4E4E4E"/>
<path d="M68.3294 14.0567C67.892 13.8848 67.2616 13.79 66.5583 13.79C64.6435 13.79 62.6676 14.8625 60.9498 16.8217L61.6314 13.9816L58.1563 14.2028L51.8799 33.3919H56.0188L59.1649 23.7737C60.2268 20.5287 62.5908 18.3503 65.0474 18.3503C65.5911 18.3503 66.1309 18.451 66.6115 18.6426L66.842 18.7354L68.3688 14.0685L68.3314 14.0527L68.3294 14.0567Z" fill="#4E4E4E"/>
<path d="M80.5981 15.427C79.8692 14.2697 78.435 13.7285 76.0887 13.7285C74.0833 13.7285 72.133 14.1038 70.2871 14.8385L68.9238 19.0037L69.4144 18.7983C71.1952 18.0518 72.5723 17.7615 74.3275 17.7615C75.5824 17.7615 76.3094 17.9886 76.6147 18.4764C76.8826 18.901 76.8511 19.5982 76.5182 20.6114L76.1537 21.7273C75.2397 21.3974 74.1345 21.2177 73.0234 21.2177C69.1228 21.2177 66.0614 23.4534 64.8381 27.202C64.1269 29.3685 64.1289 31.0433 64.84 32.175C65.4783 33.1902 66.6426 33.7056 68.2993 33.7056C70.1117 33.7056 71.9852 32.9946 73.4903 31.7464L73.2066 33.3936H76.4453L80.3636 21.4132C81.2974 18.5613 81.3703 16.6594 80.5941 15.427M74.2744 27.4804C73.8626 28.7405 71.9813 29.888 70.3284 29.888C69.4932 29.888 68.9416 29.6826 68.6855 29.2777C68.4313 28.8728 68.4471 28.225 68.7327 27.3501C69.3316 25.5212 70.6476 24.6325 72.7535 24.6325C73.8213 24.6325 74.6349 24.8201 75.0821 25.0137L74.2744 27.4804Z" fill="#4E4E4E"/>
<path d="M116.856 13.6279L113.515 14.8129C112.684 14.1138 111.386 13.7603 109.652 13.7603C105.409 13.7603 102.607 15.753 101.321 19.6813C100.7 21.5813 100.791 23.0546 101.583 24.0638C100.145 24.7827 99.1243 25.8828 98.7027 27.1725C98.2575 28.5333 98.5746 29.3944 98.9647 29.9019C97.8438 30.7709 97.0183 31.8927 96.6302 33.0777C96.1732 34.476 96.2303 35.6413 96.7977 36.5419C97.5857 37.798 99.3193 38.4339 101.951 38.4339C107.028 38.4339 110.271 36.3898 111.59 32.3588C112.045 30.9605 112.038 29.8921 111.571 29.0863C110.976 28.0672 109.628 27.4885 107.446 27.3127L103.498 27.0026C103.145 26.977 102.905 26.8822 102.818 26.7321C102.769 26.6491 102.767 26.5346 102.816 26.3884C102.932 26.0329 103.303 25.7051 103.837 25.4839C104.439 25.6201 105.15 25.6912 105.95 25.6912C110.294 25.6912 112.92 23.8486 114.214 19.8926C114.48 19.073 114.62 18.3462 114.626 17.7261L115.757 16.9874L116.419 14.9551L116.854 13.6299L116.856 13.6279ZM105.675 31.3437C106.851 31.4424 107.514 31.6478 107.702 31.9717C107.796 32.1337 107.786 32.3687 107.666 32.7321C107.337 33.7394 106.51 34.7683 102.865 34.7683C101.532 34.7683 100.669 34.5155 100.367 34.0356C100.184 33.7453 100.18 33.3365 100.361 32.7874C100.551 32.2048 101.096 31.5432 101.829 31.0079L105.675 31.3417V31.3437ZM110.267 19.7425C109.656 21.6129 108.752 22.2765 106.811 22.2765C105.956 22.2765 105.454 22.1086 105.231 21.7511C105.011 21.3996 105.038 20.7952 105.314 19.9539C105.899 18.1546 106.876 17.4219 108.685 17.4219C109.615 17.4219 110.154 17.5858 110.377 17.9433C110.588 18.2751 110.55 18.8814 110.267 19.7445" fill="#4E4E4E"/>
<path d="M129.389 24.9402L129.464 24.7664C129.73 24.1483 130.006 23.3681 130.179 22.8428C131.223 19.6472 131.259 17.2397 130.282 15.6874C129.478 14.4076 128.026 13.7598 125.966 13.7598C121.125 13.7598 117.491 17.0541 115.452 23.2852C114.197 27.1206 114.112 29.8185 115.192 31.5367C116.125 33.018 117.879 33.7369 120.556 33.7369C122.382 33.7369 124.222 33.3656 125.918 32.6645L127.301 28.432L126.887 28.6039C125.233 29.2912 123.72 29.6091 122.124 29.6091C120.528 29.6091 119.636 29.2892 119.183 28.5999C118.71 27.883 118.714 26.7197 119.195 24.9422H129.387L129.389 24.9402ZM124.898 17.7295C125.812 17.7295 126.436 17.9823 126.757 18.482C127.155 19.1041 127.138 20.1726 126.706 21.6519H120.207C121.348 18.8691 122.719 17.7295 124.9 17.7295" fill="#4E4E4E"/>
<path d="M145.643 24.9402L145.72 24.7664C145.984 24.1483 146.262 23.3681 146.433 22.8428C147.477 19.6472 147.513 17.2397 146.536 15.6874C145.732 14.4076 144.28 13.7598 142.221 13.7598C137.381 13.7598 133.744 17.0541 131.706 23.2852C130.451 27.1206 130.366 29.8185 131.445 31.5367C132.379 33.018 134.133 33.7369 136.81 33.7369C138.636 33.7369 140.476 33.3656 142.172 32.6645L143.555 28.432L143.141 28.6039C141.489 29.2912 139.976 29.6091 138.378 29.6091C136.78 29.6091 135.89 29.2892 135.437 28.5999C134.966 27.883 134.968 26.7197 135.449 24.9422H145.641L145.643 24.9402ZM141.152 17.7295C142.066 17.7295 142.692 17.9823 143.009 18.482C143.409 19.1041 143.392 20.1726 142.958 21.6519H136.459C137.6 18.8691 138.971 17.7295 141.152 17.7295Z" fill="#4E4E4E"/>
<path d="M100.608 48.5148C101.086 46.9545 100.643 46.3561 99.6088 46.3561C98.413 46.3561 97.7511 46.9703 97.1345 48.5148H100.608ZM94.3213 49.4628C95.4284 46.0776 97.4319 44.0947 100.332 44.0947C102.802 44.0947 103.799 45.6728 102.698 49.0421C102.566 49.445 102.383 49.9546 102.215 50.3239H96.5907C96.1396 52.0955 96.7011 52.763 98.3598 52.763C99.268 52.763 100.17 52.5872 101.114 52.2357L100.667 54.4279C99.723 54.8308 98.5154 55.1133 97.2881 55.1133C93.9568 55.1133 93.1058 53.1837 94.3233 49.4648" fill="#4E4E4E"/>
<path d="M107.725 54.9189L109.94 48.1466C110.324 46.9715 109.938 46.4975 108.917 46.4975C108.297 46.4975 107.528 46.7957 107.028 47.3053L104.538 54.9189H102.052L105.511 44.3408L107.335 44.2184L107.404 45.1308C108.344 44.4475 109.406 44.0781 110.41 44.0781C112.449 44.0781 113.277 45.5001 112.41 48.1486L110.196 54.9209H107.725V54.9189Z" fill="#4E4E4E"/>
<path d="M120.217 47.3235C120.069 46.8495 119.589 46.5157 118.856 46.5157C117.5 46.5157 116.754 47.288 115.974 49.6738C115.158 52.1642 115.343 52.9187 116.746 52.9187C117.654 52.9187 118.312 52.4625 118.68 52.024L120.219 47.3235H120.217ZM118.275 54.9194L118.334 54.0069L118.292 53.9891C117.477 54.7258 116.502 55.1287 115.339 55.1287C112.853 55.1287 112.221 53.3571 113.466 49.5493C114.608 46.0575 116.468 44.0746 118.921 44.0746C119.829 44.0746 120.532 44.4084 120.964 45.0404L121.007 45.0049L121.434 43.6006L122.197 41.2682L124.713 41.1279L120.203 54.9174H118.275V54.9194Z" fill="#4E4E4E"/>
<path d="M121.653 54.9195L125.107 44.3592L127.116 44.2545L126.76 46.0261H126.807C127.831 44.7463 128.978 44.1143 130.077 44.1143C130.507 44.1143 130.851 44.1854 131.078 44.2723L130.042 46.9563C129.774 46.8516 129.429 46.7805 129.047 46.7805C127.756 46.7805 126.462 47.8154 125.881 49.587L124.138 54.9195H121.651H121.653Z" fill="#4E4E4E"/>
<path d="M135.096 50.3566C134.891 50.252 134.454 50.1295 133.8 50.1295C132.701 50.1295 132.035 50.6035 131.731 51.5337C131.393 52.5686 131.83 52.938 132.643 52.938C133.457 52.938 134.436 52.3771 134.661 51.6917L135.096 50.3586V50.3566ZM134.302 53.9018L134.261 53.884C133.42 54.6562 132.352 55.0947 131.253 55.0947C129.421 55.0947 128.631 53.9551 129.411 51.5693C130.053 49.6041 131.737 48.2533 133.936 48.2533C134.653 48.2533 135.234 48.3757 135.687 48.5515L135.888 47.9373C136.239 46.8668 135.888 46.377 134.566 46.377C133.498 46.377 132.74 46.5528 131.716 46.9557L132.22 44.7812C133.341 44.325 134.521 44.0801 135.764 44.0801C138.616 44.0801 139.162 45.431 138.211 48.3441L136.059 54.9228H134.162L134.304 53.9057L134.302 53.9018Z" fill="#4E4E4E"/>
<path d="M89.7075 54.9192L88.5728 49.3753H87.314L85.5016 54.9192H82.8086L87.1111 41.7617H89.8041L88.1 46.9718H89.3923L93.9805 41.7617H97.0556L91.4431 48.0067L92.9423 54.9192H89.7075Z" fill="#4E4E4E"/>
<path d="M11.0691 72.0012H8.48251L7.54479 73.1921H6.30566L10.7638 67.9248H12.1546L12.3398 73.1921H11.0376L11.0691 72.0012ZM11.1637 68.6101C11.1085 68.699 11.0376 68.7839 10.9726 68.8689L9.05972 71.2823H11.0888L11.1637 68.9024C11.1696 68.8096 11.1637 68.7148 11.1834 68.6082H11.1637V68.6101Z" fill="#4E4E4E"/>
<path d="M19.0474 69.0091C18.8642 69.7912 18.2476 70.2316 17.5778 70.4014L17.5739 70.4133C18.1649 70.5456 18.4328 70.8774 18.3028 71.4245C18.2831 71.5094 18.2574 71.5943 18.218 71.6852C17.8339 72.6253 16.973 73.1941 15.399 73.1941H12.8281L14.9715 67.9268H17.4872C18.6968 67.9268 19.2109 68.3079 19.0474 69.0091ZM14.2465 72.4772H15.7063C16.4155 72.4772 16.9513 72.2184 17.1444 71.4028C17.2429 70.9821 17.0006 70.7925 16.3702 70.7925H14.9341L14.2465 72.4772ZM15.1902 70.1605H16.5711C17.2449 70.1605 17.6861 69.8603 17.8437 69.2066C17.9363 68.8056 17.7039 68.6615 17.1405 68.6615H15.7989L15.1902 70.1605Z" fill="#4E4E4E"/>
<path d="M25.0523 67.9268C26.5416 67.9268 27.0932 68.3336 26.8824 69.2342C26.5672 70.5752 25.5408 71.306 23.6772 71.306H22.6036L21.8392 73.1921H20.6611L22.8104 67.9268H25.0542H25.0523ZM22.8991 70.597H23.9707C24.8513 70.597 25.2512 70.3521 25.5526 69.6272C25.596 69.5226 25.6295 69.4258 25.6472 69.3389C25.7674 68.8274 25.4817 68.6595 24.7509 68.6595H23.6831L22.8991 70.597Z" fill="#4E4E4E"/>
<path d="M28.4698 73.2928C26.815 73.2928 26.2181 72.7161 26.5313 71.3968C26.5904 71.142 26.681 70.8714 26.8071 70.5633C27.5813 68.6535 28.714 67.8418 30.6919 67.8418C32.3408 67.8418 32.9279 68.4047 32.6206 69.7062C32.5634 69.959 32.4708 70.2454 32.3448 70.5633C31.5587 72.4929 30.4476 73.2928 28.4698 73.2928ZM31.411 69.7121C31.6139 68.8471 31.2731 68.6101 30.3767 68.6101C29.242 68.6101 28.6687 69.009 28.0324 70.5633C27.8965 70.8932 27.8039 71.1637 27.7507 71.3968C27.5458 72.2599 27.8886 72.5285 28.7791 72.5285C29.9098 72.5285 30.4949 72.1078 31.1253 70.5633C31.2613 70.2315 31.3538 69.9432 31.411 69.7121Z" fill="#4E4E4E"/>
<path d="M34.5617 73.2928C32.9108 73.2928 32.3139 72.7161 32.6252 71.3968C32.6843 71.142 32.7749 70.8714 32.899 70.5633C33.6752 68.6535 34.8079 67.8418 36.7858 67.8418C38.4367 67.8418 39.0198 68.4047 38.7164 69.7062C38.6573 69.959 38.5608 70.2454 38.4387 70.5633C37.6566 72.4929 36.5415 73.2928 34.5637 73.2928M37.5009 69.7121C37.7038 68.8471 37.363 68.6101 36.4667 68.6101C35.3359 68.6101 34.7567 69.009 34.1244 70.5633C33.9884 70.8932 33.8958 71.1637 33.8446 71.3968C33.6358 72.2599 33.9825 72.5285 34.869 72.5285C36.0018 72.5285 36.5888 72.1078 37.2173 70.5633C37.3552 70.2315 37.4497 69.9432 37.5029 69.7121" fill="#4E4E4E"/>
<path d="M42.6327 67.9268C43.9841 67.9268 44.5476 68.3178 44.3525 69.1493C44.1201 70.1328 43.3931 70.7372 42.483 70.8972L43.1626 73.1941H41.7876L41.3404 71.0591H40.2411L39.3783 73.1941H38.1982L40.3455 67.9268H42.6347H42.6327ZM40.5189 70.3856H41.6083C42.353 70.3856 42.9026 70.1328 43.1095 69.2559C43.2099 68.8116 42.9637 68.6575 42.3431 68.6575H41.2222L40.5209 70.3856H40.5189Z" fill="#4E4E4E"/>
<path d="M45.909 67.9268H47.1028L44.9555 73.1921H43.7637L45.909 67.9268Z" fill="#4E4E4E"/>
<path d="M52.8625 67.9268C54.5724 67.9268 55.2107 68.4896 54.9034 69.7892C54.8522 70.0203 54.7674 70.2671 54.6611 70.5397C53.877 72.4515 52.628 73.1941 50.7467 73.1941H48.3984L50.5418 67.9268H52.8644H52.8625ZM49.8799 72.414H51.0284C52.1611 72.414 52.8034 72.0644 53.4318 70.5338C53.5382 70.2592 53.6189 70.0282 53.6662 69.8228C53.8691 68.9636 53.485 68.7128 52.5295 68.7128H51.3869L49.8779 72.414H49.8799Z" fill="#4E4E4E"/>
<path d="M60.1493 71.2981C59.5859 72.6667 58.461 73.2928 56.8101 73.2928C55.3504 73.2928 54.6687 72.801 54.9189 71.7424C54.9524 71.6022 55.0056 71.4541 55.0667 71.3L56.4437 67.9287H57.6119L56.225 71.3277C56.1797 71.4422 56.1403 71.5528 56.1147 71.6536C55.9748 72.248 56.3019 72.5147 57.1214 72.5147C58.0532 72.5147 58.6403 72.1513 58.9791 71.3277L60.366 67.9287H61.5224L60.1453 71.3L60.1493 71.2981Z" fill="#4E4E4E"/>
<path d="M64.6173 73.1941L62.9802 69.3823H62.9625C62.9309 69.4732 62.8955 69.5779 62.86 69.6707L61.4259 73.1941H60.3896L62.533 67.9268H63.5613L65.0664 71.5924H65.0842C65.1039 71.5074 65.1472 71.4047 65.1866 71.3139L66.5597 67.9268H67.59L65.4466 73.1941H64.6173Z" fill="#4E4E4E"/>
<path d="M68.8094 67.9268H69.9993L67.8539 73.1921H66.6641L68.8094 67.9268Z" fill="#4E4E4E"/>
<path d="M71.9264 67.9268L72.3361 70.3422C72.3558 70.4409 72.3677 70.5377 72.3736 70.6246H72.3893C72.4524 70.5476 72.543 70.4548 72.6198 70.3777L75.0015 67.9268H76.2781L72.6178 71.4462L71.9126 73.1921H70.7129L71.4161 71.4462L70.6025 67.9268H71.9224H71.9264Z" fill="#4E4E4E"/>
<path d="M78.1873 72.0012H75.6007L74.6669 73.1921H73.4238L77.88 67.9248H79.2728L79.4599 73.1921H78.1538L78.1873 72.0012ZM78.2838 68.6101C78.2267 68.699 78.1538 68.7839 78.0908 68.8689L76.1759 71.2823H78.209L78.2838 68.9024C78.2838 68.8096 78.2838 68.7148 78.2996 68.6082H78.2838V68.6101Z" fill="#4E4E4E"/>
<path d="M86.5669 67.9268C88.0543 67.9268 88.6059 68.3336 88.3951 69.2342C88.0779 70.5752 87.0555 71.306 85.186 71.306H84.1143L83.3499 73.1921H82.1738L84.3192 67.9268H86.565H86.5669ZM84.4098 70.597H85.4815C86.362 70.597 86.7659 70.3521 87.0673 69.6272C87.1087 69.5226 87.1422 69.4258 87.1619 69.3389C87.282 68.8274 86.9905 68.6595 86.2675 68.6595H85.1938L84.4117 70.597H84.4098Z" fill="#4E4E4E"/>
<path d="M91.2859 72.0012H88.7033L87.7675 73.1921H86.5205L90.9845 67.9248H92.3734L92.5605 73.1921H91.2584L91.2859 72.0012ZM91.3864 68.6101C91.3253 68.699 91.2564 68.7839 91.1933 68.8689L89.2765 71.2823H91.3096L91.3825 68.9024C91.3884 68.8096 91.3864 68.7148 91.4002 68.6082H91.3864V68.6101Z" fill="#4E4E4E"/>
<path d="M97.5129 67.9268C99.2229 67.9268 99.8592 68.4896 99.5538 69.7892C99.5006 70.0203 99.4159 70.2671 99.3095 70.5397C98.5235 72.4515 97.2785 73.1941 95.3971 73.1941H93.043L95.1903 67.9268H97.5129ZM94.5343 72.414H95.6808C96.8136 72.414 97.4558 72.0644 98.0862 70.5338C98.1945 70.2592 98.2733 70.0282 98.3206 69.8228C98.5255 68.9636 98.1413 68.7128 97.1819 68.7128H96.0433L94.5323 72.414H94.5343Z" fill="#4E4E4E"/>
<path d="M101.517 73.2928C99.8627 73.2928 99.2638 72.7161 99.577 71.3968C99.6342 71.142 99.7248 70.8714 99.8509 70.5633C100.627 68.6535 101.758 67.8418 103.742 67.8418C105.39 67.8418 105.974 68.4047 105.668 69.7062C105.611 69.959 105.517 70.2454 105.39 70.5633C104.606 72.4929 103.491 73.2928 101.517 73.2928ZM104.457 69.7121C104.662 68.8471 104.321 68.6101 103.422 68.6101C102.288 68.6101 101.711 69.009 101.08 70.5633C100.942 70.8932 100.85 71.1637 100.794 71.3968C100.59 72.2599 100.938 72.5285 101.827 72.5285C102.958 72.5285 103.543 72.1078 104.171 70.5633C104.307 70.2315 104.404 69.9432 104.457 69.7121Z" fill="#4E4E4E"/>
<path d="M110.934 68.1164L110.485 68.855C110.022 68.701 109.549 68.6101 109.029 68.6101C108.101 68.6101 107.632 68.9794 107.534 69.3962C107.323 70.281 110.111 69.9551 109.766 71.4324C109.496 72.5739 108.285 73.2928 106.728 73.2928C105.986 73.2928 105.373 73.1368 104.939 72.8919L105.41 72.1335C105.854 72.3863 106.366 72.5285 107.028 72.5285C107.849 72.5285 108.448 72.1967 108.576 71.6437C108.795 70.7095 106.007 71.0255 106.346 69.5858C106.567 68.6457 107.601 67.8379 109.279 67.8379C109.92 67.8379 110.518 67.9426 110.934 68.1164Z" fill="#4E4E4E"/>
<path d="M115.453 67.9268L115.741 71.6338L115.749 71.9143H115.767C115.832 71.8294 115.911 71.7464 115.983 71.6635L119.336 67.9268H120.64L118.493 73.1921H117.431L118.836 69.7339C118.871 69.6411 118.923 69.5285 118.968 69.4455L118.954 69.4396L115.625 73.1921H114.829L114.547 69.4752H114.53C114.5 69.566 114.468 69.6687 114.427 69.7615L113.032 73.1941H111.994L114.141 67.9287H115.453V67.9268Z" fill="#4E4E4E"/>
<path d="M124.214 72.4337L123.879 73.1941H119.603L121.748 67.9268H125.885L125.601 68.6931H122.617L122.028 70.119H124.557L124.275 70.8162H121.744L121.086 72.4337H124.214Z" fill="#4E4E4E"/>
<path d="M126.882 67.9268H128.074L125.928 73.1921H124.736L126.882 67.9268Z" fill="#4E4E4E"/>
<path d="M131.361 73.1941L129.726 69.3823H129.709C129.679 69.4732 129.646 69.5779 129.608 69.6707L128.176 73.1941H127.136L129.285 67.9268H130.309L131.816 71.5924H131.834C131.852 71.5074 131.897 71.4047 131.935 71.3139L133.31 67.9268H134.336L132.193 73.1941H131.361Z" fill="#4E4E4E"/>
</g>
</g>
<defs>
<linearGradient id="paint0_linear_37_646" x1="168.395" y1="72.2232" x2="168.433" y2="28.2815" gradientUnits="userSpaceOnUse">
<stop stop-color="#50B748"/>
<stop offset="0.5" stop-color="#008F42"/>
<stop offset="1" stop-color="#05542B"/>
</linearGradient>
<linearGradient id="paint1_linear_37_646" x1="193.813" y1="28.2507" x2="165.25" y2="28.2507" gradientUnits="userSpaceOnUse">
<stop stop-color="#908AC2"/>
<stop offset="0.5" stop-color="#645FA9"/>
<stop offset="1" stop-color="#292268"/>
</linearGradient>
<linearGradient id="paint2_linear_37_646" x1="186.549" y1="34.2171" x2="138.919" y2="34.2171" gradientUnits="userSpaceOnUse">
<stop stop-color="#F6921E"/>
<stop offset="0.5" stop-color="#F16522"/>
<stop offset="1" stop-color="#88251D"/>
</linearGradient>
<linearGradient id="paint3_linear_37_646" x1="161.723" y1="73.04" x2="161.779" y2="26.5584" gradientUnits="userSpaceOnUse">
<stop stop-color="#50B748"/>
<stop offset="0.5" stop-color="#008F42"/>
<stop offset="1" stop-color="#05542B"/>
</linearGradient>
<clipPath id="clip0_37_646">
<rect width="197" height="79" fill="white"/>
</clipPath>
</defs>
</svg>
